<?xml version="1.0" encoding="UTF-8"?> <svg xmlns="http://www.w3.org/2000/svg" width="180" height="180" viewBox="0 0 180 180" fill="none"><g id="Clip path group"><mask id="mask0_3306_9716" style="mask-type:luminance" maskUnits="userSpaceOnUse" x="0" y="0" width="180" height="180"><g id="clip0_705_8595"><path id="Vector" d="M180 0H0V180H180V0Z" fill="white"></path></g></mask><g mask="url(#mask0_3306_9716)"><g id="Property 1=SQL Icon, Property 2=11"><g id="Coginiti Icons-12 1"><g id="Layer 2"><path id="Fill 1" fill-rule="evenodd" clip-rule="evenodd" d="M6.55281 24.4179C9.98702 -10.3387 183.877 50.21 176.452 108.449C165.202 196.282 79.3462 165.706 39.0831 128.344C4.08966 95.8258 0.667286 84.1495 6.55281 24.4179Z" fill="#EAF2FF"></path><path id="Fill 1_2" fill-rule="evenodd" clip-rule="evenodd" d="M82.1986 151.141C63.7367 168.821 38.2524 125.87 52.9129 114.655C64.0328 106.164 66.259 123.513 69.3853 127.527C73.909 133.354 92.8565 140.921 82.1986 151.141Z" fill="#81ABF7"></path><path id="Fill 1_3" fill-rule="evenodd" clip-rule="evenodd" d="M101.754 27.6145C107.971 21.3974 122.087 27.2 125.368 33.7842C127.547 38.1776 131.786 53.6434 126.86 57.4684C124.053 59.6829 118.321 58.0368 116.095 55.6447C113.868 53.2526 114.496 50.0079 113.004 47.3552C109.961 41.9434 92.5645 36.8039 101.754 27.6145Z" fill="#0779E4"></path></g><g id="Layer 1"><path id="Vector_2" d="M98.7759 40.6658C98.7759 30.2211 81.4391 22.0264 59.3062 22.0264C37.1733 22.0264 19.8365 30.2211 19.8365 40.6658C19.8365 40.9145 19.8365 41.1514 19.8365 41.3882C19.8365 41.6251 19.8365 41.6369 19.8365 41.7672V58.9619C19.8306 59.0011 19.8306 59.041 19.8365 59.0803V59.2106V102.209C19.8365 114.193 36.4154 122.886 59.3062 122.886C63.0778 122.894 66.8453 122.632 70.5799 122.104C70.8714 122.071 71.1535 121.98 71.4092 121.836C71.665 121.692 71.8892 121.498 72.0684 121.266C72.2477 121.033 72.3786 120.767 72.4531 120.483C72.5277 120.2 72.5444 119.904 72.5023 119.614C72.4602 119.322 72.3602 119.044 72.2083 118.793C72.0563 118.542 71.8554 118.324 71.6175 118.151C71.3797 117.979 71.1097 117.857 70.8236 117.792C70.5375 117.726 70.2412 117.719 69.9523 117.77C66.4213 118.265 62.8598 118.511 59.2944 118.504C39.6246 118.504 24.2181 111.399 24.2181 102.209V91.6698C30.7904 98.5501 43.8167 103.157 59.3062 103.157C63.0883 103.164 66.8654 102.879 70.6036 102.304C70.8881 102.26 71.1612 102.16 71.4072 102.01C71.6531 101.86 71.8671 101.663 72.0371 101.431C72.207 101.198 72.3293 100.934 72.3973 100.654C72.4653 100.374 72.4775 100.084 72.4332 99.7994C72.3888 99.5148 72.2888 99.2417 72.139 98.9958C71.9891 98.7498 71.7923 98.5357 71.5597 98.3658C71.3271 98.196 71.0634 98.0735 70.7836 98.0056C70.5036 97.9376 70.2131 97.9255 69.9286 97.9698C66.4019 98.5122 62.8387 98.7813 59.2707 98.7751C39.9207 98.7751 24.1944 91.1014 24.1944 81.6869V69.1461C30.7549 76.2514 44.0062 81.225 59.2707 81.225C63.0634 81.2312 66.8501 80.9222 70.5917 80.3014C71.1649 80.2056 71.6765 79.8859 72.0141 79.413C72.3517 78.9399 72.4875 78.3522 72.3917 77.779C72.2959 77.2058 71.9763 76.6941 71.5033 76.3565C71.0303 76.019 70.4425 75.8832 69.8694 75.979C66.3466 76.56 62.7817 76.849 59.2115 76.8435C40.2641 76.8435 24.2299 68.6843 24.2299 58.9619V49.3343C30.7904 55.3027 43.8167 59.3053 59.3062 59.3053C74.7957 59.3053 87.8812 55.3027 94.3825 49.3343V50.5185C94.4233 51.0732 94.6724 51.592 95.0798 51.9706C95.4873 52.3493 96.023 52.5597 96.5792 52.5597C97.1355 52.5597 97.6711 52.3493 98.0786 51.9706C98.4861 51.592 98.7352 51.0732 98.7759 50.5185V41.7553C98.7874 41.6292 98.7874 41.5024 98.7759 41.3764C98.7878 41.1396 98.7878 40.9026 98.7759 40.6658ZM59.3062 54.8764C42.7273 54.8764 24.2299 48.9553 24.2299 40.6658C24.2299 32.3764 42.7154 26.4553 59.3062 26.4553C75.897 26.4553 94.3825 32.3053 94.3825 40.6658C94.3825 49.0264 75.897 54.9237 59.3062 54.9237V54.8764Z" fill="#231F20"></path><path id="Vector_2_2" d="M160.163 75.79C160.163 65.3334 142.826 57.1504 120.693 57.1504C98.5609 57.1504 81.2241 65.2979 81.2241 75.79C81.2241 76.0268 81.2241 76.2635 81.2241 76.5004C81.2118 76.6225 81.2118 76.7455 81.2241 76.8676V94.0387C81.2241 94.0387 81.2241 94.1214 81.2241 94.1688V94.3229V137.227C81.2241 149.211 97.803 157.915 120.693 157.915C143.584 157.915 160.163 149.211 160.163 137.227V94.382V94.2281C160.169 94.1848 160.169 94.1411 160.163 94.0978V76.8438C160.17 76.7216 160.17 76.599 160.163 76.4768C160.139 76.2281 160.163 75.9913 160.163 75.79ZM155.77 137.369C155.77 146.511 140.375 153.664 120.693 153.664C101.012 153.664 85.6175 146.558 85.6175 137.369V126.711C92.1188 133.591 105.228 138.198 120.693 138.198C136.159 138.198 149.268 133.591 155.77 126.711V137.369ZM155.77 112.015V116.764C155.77 126.237 140.043 133.852 120.693 133.852C101.344 133.852 85.6175 126.19 85.6175 116.764V104.211C92.178 111.399 105.394 116.314 120.693 116.314C135.993 116.314 149.209 111.399 155.77 104.211V112.015ZM155.77 94.1216C155.77 103.82 139.712 112.015 120.693 112.015C101.675 112.015 85.6175 103.737 85.6175 94.0387V84.4109C92.1188 90.332 105.228 94.382 120.693 94.382C136.159 94.382 149.268 90.3912 155.77 84.4109V94.1216ZM120.693 90.0005C104.115 90.0005 85.6175 84.1504 85.6175 75.79C85.6175 67.4295 104.103 61.5795 120.693 61.5795C137.284 61.5795 155.77 67.4295 155.77 75.79C155.77 84.1504 137.284 90.0005 120.693 90.0005Z" fill="#231F20"></path><path id="Vector_3" fill-rule="evenodd" clip-rule="evenodd" d="M107.542 37.3738H114.127C115.29 37.3768 116.404 37.8412 117.226 38.6647C118.047 39.4883 118.509 40.6041 118.509 41.7672V48.3396C118.509 48.9205 118.738 49.4778 119.149 49.8886C119.56 50.2995 120.118 50.5303 120.7 50.5303C121.28 50.5303 121.838 50.2995 122.248 49.8886C122.659 49.4778 122.89 48.9205 122.89 48.3396V41.7672C122.89 39.442 121.967 37.2118 120.324 35.5665C118.68 33.9212 116.452 32.9953 114.127 32.9922H107.542C106.961 32.9922 106.404 33.223 105.993 33.6338C105.582 34.0447 105.352 34.6019 105.352 35.183C105.352 35.7639 105.582 36.3212 105.993 36.732C106.404 37.143 106.961 37.3738 107.542 37.3738Z" fill="#231F20"></path><path id="Vector_4" fill-rule="evenodd" clip-rule="evenodd" d="M65.8803 142.627H74.608C75.1889 142.627 75.7462 142.858 76.157 143.269C76.5678 143.679 76.7986 144.236 76.7986 144.817C76.7986 145.399 76.5678 145.955 76.157 146.366C75.7462 146.777 75.1889 147.008 74.608 147.008H65.8803C63.555 147.005 61.3261 146.079 59.6831 144.434C58.04 142.789 57.1171 140.559 57.1172 138.233V129.47C57.1172 128.889 57.348 128.332 57.7588 127.921C58.1696 127.51 58.7269 127.279 59.308 127.279C59.8889 127.279 60.4462 127.51 60.857 127.921C61.2678 128.332 61.4988 128.889 61.4988 129.47V138.233C61.4986 139.396 61.9599 140.512 62.7813 141.336C63.6026 142.159 64.7171 142.623 65.8803 142.627Z" fill="#231F20"></path></g></g></g></g></g></svg> 